# File created by Blade
# Date/Time:  Tue Jan 27 17:16:36 2015
#---------------------------------------------------------
:version 1.10
:name HOM
:units
  mass 1.0
  length 1.000000
  angle deg
:documentation
     Acclaim Skeleton File
:root
   axis xyz
   order TX TY TZ RX RY RZ
   position 0.000000 0.000000 0.000000
   orientation 0 0 0
:bonedata
   begin
      id 1
      name Spine_dum
      direction 0.000000 1.000000 0.000000
      length 7.539951
      axis 0.0 0.0 0.0 xyz
   end
   begin
      id 2
      name LeftUpLeg_dum
      direction 1.000000 0.000000 0.000000
      length 3.345476
      axis 0.0 0.0 0.0 xyz
   end
   begin
      id 3
      name RightUpLeg_dum
      direction -1.000000 0.000000 0.000000
      length 3.345476
      axis 0.0 0.0 0.0 xyz
   end
   begin
      id 4
      name Spine
      direction 0.000000 1.000000 0.000000
      length 0.000000
      axis 0.0 0.0 0.0 xyz
      dof rx ry rz
   end
   begin
      id 5
      name Spine_dum1
      direction 0.000000 1.000000 0.000000
      length 15.093809
      axis 0.0 0.0 0.0 xyz
   end
   begin
      id 6
      name Spine_dum2
      direction 0.000000 1.000000 0.000000
      length 9.738928
      axis 0.0 0.0 0.0 xyz
   end
   begin
      id 7
      name Spine_dum3
      direction 0.000000 1.000000 0.000000
      length 9.738928
      axis 0.0 0.0 0.0 xyz
   end
   begin
      id 8
      name Head
      direction 0.000000 1.000000 0.000000
      length 4.527550
      axis 0.0 0.0 0.0 xyz
      dof rx ry rz
   end
   begin
      id 9
      name LeftShoulder
      direction 1.000000 0.000000 0.000000
      length 7.084015
      axis 0.0 0.0 -90.0 xyz
      dof rx ry rz
   end
   begin
      id 10
      name LeftArm
      direction 1.000000 0.000000 0.000000
      length 10.259319
      axis 0.0 0.0 -90.0 xyz
      dof rx ry rz
   end
   begin
      id 11
      name LeftForeArm
      direction 1.000000 0.000000 0.000000
      length 9.896984
      axis 0.0 0.0 -90.0 xyz
      dof ry rz rx
   end
   begin
      id 12
      name LeftHand
      direction 0.000000 0.000000 0.000000
      length 0.000000
      axis 0.0 0.0 -90.0 xyz
      dof rx ry rz
   end
   begin
      id 13
      name LeftHand_dum1
      direction 0.000000 0.000000 0.000000
      length 0.000000
      axis 0.0 0.0 -90.0 xyz
   end
   begin
      id 14
      name LeftHand_dum2
      direction 1.000000 0.000000 0.000000
      length 3.937000
      axis 0.0 0.0 -90.0 xyz
   end
   begin
      id 15
      name LeftHandThumb1
      direction 0.000000 0.000000 1.000000
      length 3.937000
      axis 0.0 0.0 -90.0 xyz
      dof rx rz ry
   end
   begin
      id 16
      name RightShoulder
      direction -1.000000 0.000000 0.000000
      length 7.084015
      axis 0.0 0.0 90.0 xyz
      dof rx ry rz
   end
   begin
      id 17
      name RightArm
      direction -1.000000 0.000000 0.000000
      length 10.259319
      axis 0.0 0.0 90.0 xyz
      dof rx ry rz
   end
   begin
      id 18
      name RightForeArm
      direction -1.000000 0.000000 0.000000
      length 9.896984
      axis 0.0 0.0 90.0 xyz
      dof ry rz rx
   end
   begin
      id 19
      name RightHand
      direction 0.000000 0.000000 0.000000
      length 0.000000
      axis 0.0 0.0 90.0 xyz
      dof rx ry rz
   end
   begin
      id 20
      name RightHand_dum1
      direction 0.000000 0.000000 0.000000
      length 0.000000
      axis 0.0 0.0 90.0 xyz
   end
   begin
      id 21
      name RightHand_dum2
      direction -1.000000 0.000000 0.000000
      length 3.937000
      axis 0.0 0.0 90.0 xyz
   end
   begin
      id 22
      name RightHandThumb1
      direction 0.000000 0.000000 1.000000
      length 3.937000
      axis 0.0 0.0 90.0 xyz
      dof rx rz ry
   end
   begin
      id 23
      name LeftUpLeg
      direction 0.000000 -1.000000 0.000000
      length 19.114733
      axis 0.0 0.0 0.0 xyz
      dof rx ry rz
   end
   begin
      id 24
      name LeftLeg
      direction 0.000000 -1.000000 0.000000
      length 16.045604
      axis 0.0 0.0 0.0 xyz
      dof rx ry rz
   end
   begin
      id 25
      name LeftFoot
      direction 0.000000 -0.258819 0.965926
      length 5.543155
      axis 15.0 0.0 0.0 xyz
      dof rx ry rz
   end
   begin
      id 26
      name LeftToeBase
      direction 0.000000 0.000000 1.000000
      length 2.952750
      axis 0.0 0.0 0.0 xyz
      dof rx ry rz
   end
   begin
      id 27
      name RightUpLeg
      direction 0.000000 -1.000000 0.000000
      length 19.114733
      axis 0.0 0.0 0.0 xyz
      dof rx ry rz
   end
   begin
      id 28
      name RightLeg
      direction 0.000000 -1.000000 0.000000
      length 16.045604
      axis 0.0 0.0 0.0 xyz
      dof rx ry rz
   end
   begin
      id 29
      name RightFoot
      direction 0.000000 -0.258819 0.965926
      length 5.543155
      axis 15.0 0.0 0.0 xyz
      dof rx ry rz
   end
   begin
      id 30
      name RightToeBase
      direction 0.000000 0.000000 1.000000
      length 2.952750
      axis 0.0 0.0 0.0 xyz
      dof rx ry rz
   end
:hierarchy
   begin
      root Spine_dum LeftUpLeg_dum RightUpLeg_dum
      Spine_dum Spine
      LeftUpLeg_dum LeftUpLeg
      RightUpLeg_dum RightUpLeg
      Spine Spine_dum1 Spine_dum2 Spine_dum3
      Spine_dum1 Head
      Spine_dum2 LeftShoulder
      Spine_dum3 RightShoulder
      LeftShoulder LeftArm
      LeftArm LeftForeArm
      LeftForeArm LeftHand
      LeftHand LeftHand_dum1 LeftHand_dum2
      LeftHand_dum1 LeftHandThumb1
      RightShoulder RightArm
      RightArm RightForeArm
      RightForeArm RightHand
      RightHand RightHand_dum1 RightHand_dum2
      RightHand_dum1 RightHandThumb1
      LeftUpLeg LeftLeg
      LeftLeg LeftFoot
      LeftFoot LeftToeBase
      RightUpLeg RightLeg
      RightLeg RightFoot
      RightFoot RightToeBase
   end

# File created by Blade
# Date/Time:  Tue Jan 27 17:16:27 2015
# Frame Rate: 120.000 fps
#------------------------------------------------------
:FULLY-SPECIFIED
:DEGREES
1703
root -3.637826 36.526074 2.091154 4.550322 25.228191 9.657496
Spine 7.055978 2.838024 -9.949888
Head -3.858023 -7.279307 8.241041
LeftShoulder -0.436563 -15.611131 10.295672
LeftArm -0.225809 -17.805801 -33.503823
LeftForeArm 4.505209 -0.000000 62.099596
LeftHand -14.950743 -0.000000 55.770489
LeftHandThumb1 -26.253704 0.000000 33.147579
RightShoulder -4.826853 -16.436994 2.594158
RightArm 12.608426 -17.527366 55.496640
RightForeArm -175.267019 -0.000000 28.670579
RightHand 0.561465 0.000000 4.245471
RightHandThumb1 -24.326973 -0.000000 -32.862282
LeftUpLeg -77.843126 29.015088 0.464363
LeftLeg 94.711907 -0.000000 -0.000000
LeftFoot 9.057701 0.690493 -30.155867
LeftToeBase 17.560951 -0.000000 -0.000000
RightUpLeg -11.268304 -12.570329 0.829203
RightLeg 26.985780 -0.000000 -0.000000
RightFoot -22.519439 -15.830939 3.365726
RightToeBase 3.645790 -0.000000 -0.000000
1704
root -3.649688 36.526310 2.098872 4.568004 25.257340 9.634350
Spine 7.073479 2.796387 -9.983560
Head -3.927846 -7.271324 8.264683
LeftShoulder -0.475874 -15.629797 10.345009
LeftArm -0.218390 -17.834071 -33.501552
LeftForeArm 4.527100 -0.000000 62.126837
LeftHand -14.958345 -0.000000 55.769580
LeftHandThumb1 -26.253704 0.000000 33.147579
RightShoulder -4.814591 -16.421820 2.602709
RightArm 12.594101 -17.584139 55.499920
RightForeArm -175.221791 0.000000 28.709192
RightHand 0.592594 -0.000000 4.197963
RightHandThumb1 -24.326973 -0.000000 -32.862282
LeftUpLeg -77.767199 29.056203 0.414067
LeftLeg 94.649102 -0.000000 -0.000000
LeftFoot 8.353769 1.012672 -30.009342
LeftToeBase 17.349387 -0.000000 -0.000000
RightUpLeg -11.273123 -12.552655 0.878268
RightLeg 26.946826 -0.000000 -0.000000
RightFoot -22.498072 -15.864926 3.348021
RightToeBase 3.668417 -0.000000 -0.000000
1705
root -3.660907 36.526915 2.106157 4.589726 25.286775 9.617165
Spine 7.078161 2.781290 -10.009625
Head -3.934776 -7.283838 8.245757
LeftShoulder -0.461045 -15.630505 10.367768
LeftArm -0.224948 -17.866328 -33.476075
LeftForeArm 4.523716 -0.000000 62.146234
LeftHand -14.976459 -0.000000 55.805825
LeftHandThumb1 -26.253704 0.000000 33.147579
RightShoulder -4.827305 -16.416564 2.606943
RightArm 12.598651 -17.637292 55.512673
RightForeArm -175.199072 -0.000000 28.710926
RightHand 0.522767 0.000000 4.195127
RightHandThumb1 -24.326973 -0.000000 -32.862282
LeftUpLeg -77.694147 29.099053 0.363555
LeftLeg 94.528941 -0.000000 -0.000000
LeftFoot 7.609242 1.328763 -29.868514
LeftToeBase 17.219261 -0.000000 -0.000000
RightUpLeg -11.277136 -12.560836 0.919022
RightLeg 26.905508 -0.000000 -0.000000
RightFoot -22.480325 -15.855284 3.350637
RightToeBase 3.656429 -0.000000 -0.000000
1706
root -3.672355 36.528541 2.112719 4.609278 25.292032 9.612686
Spine 7.089782 2.785533 -10.049090
Head -3.935555 -7.273908 8.208659
LeftShoulder -0.467291 -15.619074 10.371054
LeftArm -0.201499 -17.892512 -33.426037
LeftForeArm 4.575713 -0.000000 62.179964
LeftHand -15.106808 -0.000000 55.794168
LeftHandThumb1 -26.253704 0.000000 33.147579
RightShoulder -4.823301 -16.409439 2.608785
RightArm 12.592169 -17.646986 55.541577
RightForeArm -175.184325 -0.000000 28.727248
RightHand 0.509278 -0.000000 4.207623
RightHandThumb1 -24.326973 -0.000000 -32.862282
LeftUpLeg -77.600025 29.147556 0.328269
LeftLeg 94.352515 -0.000000 -0.000000
LeftFoot 6.902475 1.631525 -29.648735
LeftToeBase 17.025205 -0.000000 -0.000000
RightUpLeg -11.280131 -12.563979 0.944807
RightLeg 26.872517 -0.000000 -0.000000
RightFoot -22.450391 -15.838781 3.318495
RightToeBase 3.650169 -0.000000 -0.000000
1707
root -3.682581 36.529725 2.119782 4.618863 25.289199 9.598915
Spine 7.098136 2.804675 -10.071705
Head -3.921918 -7.243120 8.173806
LeftShoulder -0.447145 -15.640319 10.385931
LeftArm -0.241213 -17.919689 -33.395573
LeftForeArm 4.560214 -0.000000 62.208436
LeftHand -15.039256 0.000000 55.740187
LeftHandThumb1 -26.253704 0.000000 33.147579
RightShoulder -4.830499 -16.420066 2.608497
RightArm 12.605967 -17.671494 55.550402
RightForeArm -175.119475 0.000000 28.743483
RightHand 0.495552 0.000000 4.217256
RightHandThumb1 -24.326973 -0.000000 -32.862282
LeftUpLeg -77.492576 29.201351 0.347295
LeftLeg 94.134712 -0.000000 -0.000000
LeftFoot 6.219514 1.852344 -29.565080
LeftToeBase 16.915962 -0.000000 -0.000000
RightUpLeg -11.273248 -12.589228 0.974831
RightLeg 26.829659 -0.000000 -0.000000
RightFoot -22.416704 -15.800698 3.277895
RightToeBase 3.657810 -0.000000 -0.000000
1708
root -3.692016 36.531364 2.126328 4.629462 25.257641 9.601482
Spine 7.122029 2.847051 -10.114520
Head -3.950011 -7.189601 8.154921
LeftShoulder -0.450802 -15.669758 10.410337
LeftArm -0.269732 -17.932455 -33.371120
LeftForeArm 4.575397 -0.000000 62.248186
LeftHand -15.034236 0.000000 55.705444
LeftHandThumb1 -26.253704 0.000000 33.147579
RightShoulder -4.843420 -16.413934 2.599779
RightArm 12.628458 -17.659747 55.583174
RightForeArm -175.114004 -0.000000 28.741886
RightHand 0.463733 -0.000000 4.181976
RightHandThumb1 -24.326973 -0.000000 -32.862282
LeftUpLeg -77.369589 29.275229 0.358350
LeftLeg 93.878206 -0.000000 -0.000000
LeftFoot 5.475449 2.054394 -29.440688
LeftToeBase 16.963838 -0.000000 -0.000000
RightUpLeg -11.271996 -12.573483 0.986903
RightLeg 26.808512 -0.000000 -0.000000
RightFoot -22.393824 -15.773204 3.255012
RightToeBase 3.632954 -0.000000 -0.000000
1709
root -3.701950 36.532630 2.131594 4.640632 25.225470 9.605549
Spine 7.146720 2.883519 -10.159227
Head -3.961895 -7.142901 8.128897
LeftShoulder -0.456429 -15.698163 10.444934
LeftArm -0.311647 -17.954891 -33.355041
LeftForeArm 4.585976 -0.000000 62.299441
LeftHand -15.064516 -0.000000 55.668414
LeftHandThumb1 -26.253704 0.000000 33.147579
RightShoulder -4.850403 -16.419972 2.611477
RightArm 12.652004 -17.673176 55.568885
RightForeArm -175.045483 -0.000000 28.787934
RightHand 0.467246 -0.000000 4.215994
RightHandThumb1 -24.326973 -0.000000 -32.862282
LeftUpLeg -77.292375 29.351968 0.296648
LeftLeg 93.586829 -0.000000 -0.000000
LeftFoot 4.685451 2.418573 -29.129566
LeftToeBase 16.459228 -0.000000 -0.000000
RightUpLeg -11.275144 -12.558553 0.999318
RightLeg 26.787378 -0.000000 -0.000000
RightFoot -22.369662 -15.757094 3.220002
RightToeBase 3.642657 -0.000000 -0.000000
